<svg version="1.1" id="Layer_1" xmlns="http://www.w3.org/2000/svg" xmlns:xlink="http://www.w3.org/1999/xlink" viewBox="0 0 512 512" xml:space="preserve" fill="#000000" stroke="#000000" stroke-width="0.512"><g id="SVGRepo_bgCarrier" stroke-width="0"></g><g id="SVGRepo_tracerCarrier" stroke-linecap="round" stroke-linejoin="round"></g><g id="SVGRepo_iconCarrier"> <polyline style="fill:#E2AE5A;" points="194.681,460.666 408.641,460.666 257.678,222.465 244.507,201.676 194.681,123.056 194.681,201.676 "></polyline> <polyline style="fill:#FFCA6C;" points="194.681,123.055 298.036,123.055 512,460.666 408.645,460.666 "></polyline> <rect x="100.437" y="429.97" style="fill:#C0EFFF;" width="124.323" height="30.702"></rect> <g> <rect x="100.437" y="429.97" style="fill:#9FD0DD;" width="37.124" height="30.702"></rect> <rect x="100.437" y="409.503" style="fill:#9FD0DD;" width="124.323" height="30.702"></rect> </g> <path style="fill:#C0EFFF;" d="M257.678,201.676H67.519v193.666c0,19.326,15.667,34.992,34.992,34.992h120.175 c19.326,0,34.992-15.667,34.992-34.992V201.676z"></path> <g> <path style="fill:#9FD0DD;" d="M107.808,395.342V201.676h-40.29v193.666c0,19.326,15.667,34.992,34.992,34.992h40.29 C123.475,430.335,107.808,414.668,107.808,395.342z"></path> <path style="fill:#9FD0DD;" d="M47.133,409.802c-2.268,0-4.533-0.888-6.228-2.653c-3.303-3.44-3.192-8.904,0.246-12.207l7.32-7.03 c4.156-3.992,5.84-9.721,4.504-15.326c-1.336-5.606-5.423-9.96-10.933-11.648l-13.576-4.16C11.44,351.56,0,336.091,0,318.283 v-67.955c0-22.582,18.372-40.954,40.954-40.954s40.954,18.372,40.954,40.954v20.178c0,4.768-3.866,8.634-8.634,8.634 s-8.634-3.866-8.634-8.634v-20.178c0-13.061-10.625-23.687-23.687-23.687s-23.687,10.626-23.687,23.688v67.955 c0,10.169,6.533,19.004,16.257,21.983l13.576,4.16c11.425,3.501,19.901,12.53,22.67,24.154c2.77,11.624-0.721,23.505-9.339,31.783 l-7.32,7.03C51.439,409.003,49.284,409.802,47.133,409.802z"></path> </g> <polygon style="fill:#FC583D;" points="231.779,123.055 260.108,123.055 474.071,460.666 445.743,460.666 "></polygon> <path style="fill:#E6E6E6;" d="M166.51,184.278c-4.768,0-8.634-3.866-8.634-8.634c0-7.258-1.902-10.443-4.534-14.853 c-3.108-5.205-6.977-11.684-6.977-23.705c0-12.022,3.868-18.501,6.977-23.706c2.633-4.41,4.534-7.596,4.534-14.857 c0-7.26-1.902-10.445-4.534-14.855c-3.108-5.205-6.977-11.685-6.977-23.707c0-4.768,3.866-8.634,8.634-8.634 s8.634,3.866,8.634,8.634c0,7.259,1.902,10.445,4.534,14.857c3.108,5.205,6.977,11.685,6.977,23.706 c0,12.022-3.868,18.501-6.977,23.707c-2.633,4.41-4.534,7.596-4.534,14.857c0,7.258,1.902,10.443,4.534,14.853 c3.108,5.205,6.977,11.684,6.977,23.705C175.143,180.413,171.279,184.278,166.51,184.278z"></path> </g></svg>
