<svg version="1.1" id="Layer_1" xmlns="http://www.w3.org/2000/svg" xmlns:xlink="http://www.w3.org/1999/xlink" 
	 viewBox="0 0 511.975 511.975" xml:space="preserve">
<path style="fill:#FFD2A6;" d="M447.985,410.063c0,11.781-9.562,21.312-21.344,21.312H85.332c-11.789,0-21.335-9.531-21.335-21.312
	V175.391c0-11.781,9.546-21.328,21.335-21.328h341.309c11.781,0,21.344,9.546,21.344,21.328L447.985,410.063L447.985,410.063z"/>
<rect x="63.998" y="367.377" style="fill:#965353;" width="383.99" height="63.998"/>
<g>
	<polygon style="fill:#723939;" points="126.175,367.378 63.997,429.563 63.997,431.376 92.34,431.376 156.338,367.378 	"/>
	<polygon style="fill:#723939;" points="182.853,431.376 246.851,367.378 216.679,367.378 152.681,431.376 	"/>
	<polygon style="fill:#723939;" points="273.366,431.376 337.364,367.378 307.176,367.378 243.187,431.376 	"/>
	<polygon style="fill:#723939;" points="333.708,431.376 363.862,431.376 427.86,367.378 397.706,367.378 	"/>
</g>
<path style="fill:#EC87C0;" d="M88.09,247.138c13.102-4.64,33.812-5.203,47.147-1.25l31.21,9.218c9.281,2.75,25.569,2.75,34.858,0
	l31.202-9.218c13.172-3.906,33.796-3.906,46.968,0l31.201,9.218c9.281,2.75,25.578,2.75,34.858,0l31.202-9.218
	c13.344-3.953,34.062-3.39,47.155,1.25l24.093,8.562v-80.31c0-11.781-9.562-21.328-21.344-21.328H85.332
	c-11.789,0-21.335,9.546-21.335,21.328v80.31L88.09,247.138z"/>
<path style="fill:#ED5564;" d="M291.365,156.969c-22.062,17.656-64.389,26.781-79.271,8.172
	c-14.882-18.608,3.32-57.889,25.382-75.544c22.062-17.648,39.64-6.968,54.514,11.64C306.88,119.83,313.426,139.329,291.365,156.969z
	"/>
<g>
	<path style="fill:#A0D468;" d="M305.317,117.892c-4.594,3.672-11.312,2.922-14.983-1.672c-3.688-4.593-2.938-11.312,1.656-15
		c4.608-3.672,11.312-2.922,14.999,1.672C310.676,107.502,309.926,114.205,305.317,117.892z"/>
	<path style="fill:#A0D468;" d="M291.99,101.221c-4.594,3.688-11.312,2.938-14.983-1.656c-3.672-4.609-2.938-11.312,1.672-14.992
		c4.593-3.679,11.312-2.937,14.983,1.664C297.333,90.831,296.598,97.549,291.99,101.221z"/>
</g>
<path style="fill:#434A54;" d="M508.858,413.188c-2.078-2.094-4.812-3.125-7.531-3.125l0,0H10.662l0,0
	c-2.726,0-5.46,1.031-7.539,3.125c-4.164,4.156-4.164,10.906,0,15.062c2.086,2.094,4.812,3.125,7.546,3.125H501.31
	c2.734,0,5.453-1.031,7.547-3.125C513.014,424.094,513.014,417.344,508.858,413.188z"/>
<g>
	<path style="fill:#ED5564;" d="M99.113,146.517c-4.164,4.171-4.164,10.921,0,15.093c4.172,4.156,10.921,4.156,15.085,0
		c4.164-4.172,4.164-10.921,0-15.093C110.034,142.361,103.285,142.361,99.113,146.517z"/>
	<path style="fill:#ED5564;" d="M120.456,189.187c-4.171,4.156-4.171,10.922,0,15.078c4.164,4.172,10.914,4.172,15.078,0
		c4.171-4.156,4.171-10.922,0-15.078C131.37,185.015,124.62,185.015,120.456,189.187z"/>
	<path style="fill:#ED5564;" d="M184.454,221.186c-4.171,4.156-4.171,10.922,0,15.078c4.164,4.172,10.914,4.172,15.086,0
		c4.164-4.156,4.164-10.922,0-15.078C195.368,217.014,188.618,217.014,184.454,221.186z"/>
	<path style="fill:#ED5564;" d="M248.608,189.187c-4.164,4.156-4.164,10.922,0,15.078c4.164,4.172,10.922,4.172,15.086,0
		c4.164-4.156,4.164-10.922,0-15.078C259.53,185.015,252.772,185.015,248.608,189.187z"/>
	<path style="fill:#ED5564;" d="M312.458,221.186c-4.172,4.156-4.172,10.922,0,15.078c4.156,4.172,10.906,4.172,15.078,0
		c4.172-4.156,4.172-10.922,0-15.078C323.364,217.014,316.614,217.014,312.458,221.186z"/>
	<path style="fill:#ED5564;" d="M376.456,189.187c-4.172,4.156-4.172,10.922,0,15.078c4.156,4.172,10.906,4.172,15.078,0
		c4.172-4.156,4.172-10.922,0-15.078C387.362,185.015,380.612,185.015,376.456,189.187z"/>
	<path style="fill:#ED5564;" d="M199.532,161.61c4.164-4.172,4.164-10.921,0-15.093c-4.164-4.156-10.922-4.156-15.086,0
		c-4.164,4.171-4.164,10.921,0,15.093C188.61,165.766,195.368,165.766,199.532,161.61z"/>
	<path style="fill:#ED5564;" d="M355.113,146.517c-4.156,4.171-4.156,10.921,0,15.093c4.156,4.156,10.921,4.156,15.093,0
		c4.156-4.172,4.156-10.921,0-15.093C366.034,142.361,359.269,142.361,355.113,146.517z"/>
	<path style="fill:#ED5564;" d="M412.861,146.517c-4.156-4.156-10.905-4.156-15.077,0c-4.172,4.171-4.172,10.921,0,15.093
		c4.172,4.156,10.921,4.156,15.077,0C417.033,157.438,417.033,150.688,412.861,146.517z"/>
</g>
<g>
	<path style="fill:#EC87C0;" d="M181.329,292.723c-0.008,2.719,1.039,5.469,3.125,7.531c4.164,4.188,10.914,4.188,15.086,0
		c2.078-2.062,3.117-4.812,3.117-7.531l0,0V250.06H181.33v42.663H181.329z"/>
	<path style="fill:#EC87C0;" d="M117.331,271.388L117.331,271.388c0,2.742,1.039,5.46,3.117,7.554
		c4.172,4.156,10.922,4.156,15.086,0c2.085-2.094,3.125-4.812,3.125-7.554l0,0v-42.656h-21.327v42.656H117.331z"/>
	<path style="fill:#EC87C0;" d="M245.327,303.38c-0.008,2.75,1.039,5.469,3.125,7.562c4.164,4.156,10.914,4.156,15.086,0
		c2.078-2.094,3.117-4.812,3.117-7.562l0,0v-70.819h-21.328L245.327,303.38L245.327,303.38z"/>
	<path style="fill:#EC87C0;" d="M309.333,282.067L309.333,282.067c0,2.719,1.031,5.438,3.125,7.531
		c4.156,4.156,10.906,4.156,15.078,0c2.078-2.094,3.109-4.812,3.109-7.531l0,0v-30.835h-21.312V282.067z"/>
	<path style="fill:#EC87C0;" d="M394.643,237.233h-21.312v34.156c0,2.742,1.031,5.46,3.125,7.554c4.156,4.156,10.906,4.156,15.062,0
		c2.094-2.094,3.125-4.812,3.125-7.554l0,0V237.233z"/>
</g>
</svg>