<svg viewBox="0 0 1024 1024" class="icon" version="1.1" xmlns="http://www.w3.org/2000/svg" fill="#000000"><g id="SVGRepo_bgCarrier" stroke-width="0"></g><g id="SVGRepo_tracerCarrier" stroke-linecap="round" stroke-linejoin="round"></g><g id="SVGRepo_iconCarrier"><path d="M795 299l-48-13 48-13 13-49 13 49 49 13-49 13-13 48-13-48zM843 351l-19-4 19-4 4-19 5 19 18 4-18 4-5 19-4-19z" fill="#ffd2a6"></path><path d="M190 292m-9 0a9 9 0 1 0 18 0 9 9 0 1 0-18 0Z" fill="#5546CB"></path><path d="M283 879l-32-8 32-8 8-32 7 32 33 8-33 8-7 32-8-32zM219 607l-15-4 15-3 3-15 4 15 14 3-14 4-4 14-3-14z" fill="#ffd2a6"></path><path d="M744 856a25 25 0 1 1 25-25 25 25 0 0 1-25 25z m0-36a10 10 0 1 0 10 10 10 10 0 0 0-10-9z" fill="#5546CB"></path><path d="M693 355a184 184 0 0 0-63-130l-13 130zM510 181c-98 0-178 77-183 174h270l14-144a181 181 0 0 0-101-30z" fill="#FF8859"></path><path d="M750 375v-20h-37a205 205 0 0 0-81-153l10-103a10 10 0 1 0-20-2l-9 92a201 201 0 0 0-103-28c-109 0-198 86-203 194h-36v20h324l-4 37H301l85 535h249l50-334h1v-7l29-194H612l4-37zM618 927H418l-58-314h54c3 16 13 30 29 41s42 20 68 20 50-7 68-20 26-25 29-41h57zM433 603c0-13 8-25 21-35s35-16 57-16 42 6 57 16 21 22 21 35-8 25-21 35-35 16-57 16-42-6-57-16-21-22-21-35z m259-171l-24 161h-60c-3-16-13-30-29-41s-42-20-68-20-50 7-68 20-26 25-29 41h-58l-30-161z m1-77h-76l13-130a184 184 0 0 1 63 130z m-366 0c5-97 85-174 183-174a181 181 0 0 1 101 31l-14 143z" fill="#5546CB"></path><path d="M579 654c-18 13-42 20-68 20s-50-7-68-20-26-25-29-41h-54l44 314h214l47-314h-57c-3 16-13 30-29 41zM356 593h58c3-16 13-30 29-41s42-20 68-20 50 7 68 20 26 25 29 41h60l24-162H326z" fill="#ffd2a6"></path><path d="M454 638c15 10 35 16 57 16s42-6 57-16 21-22 21-35-8-25-21-35-35-16-57-16-42 6-57 16-21 22-21 35 8 25 21 35z m-3-45h115v20H451z" fill="#AFBCF3"></path><path d="M451 593h115v20H451z" fill="#FFFFFF"></path></g></svg>