<svg xmlns="http://www.w3.org/2000/svg" width="56" height="55" viewBox="0 0 56 55" fill="none">
  <g clip-path="url(#clip0_10_1347)">
    <path d="M47.6694 0.803952C47.3608 0.62592 46.993 0.57519 46.6464 0.662861C46.2999 0.750533 46.0028 0.969467 45.8202 1.27175L36.1488 17.3632C36.0992 17.4466 36.0592 17.5352 36.0294 17.6273C34.9473 18.0213 33.9373 18.5849 33.0386 19.296C30.1082 14.4065 24.7389 11.3277 18.8731 11.3277C9.82201 11.3277 2.45955 18.5484 2.43432 27.4318H0.300781L0.49155 28.9241C1.6017 37.5971 7.04786 45.1726 14.8786 49.1616V54.2827H35.0842C37.6454 54.2827 39.7291 52.2344 39.7291 49.7183V49.1623C47.5623 45.1714 53.006 37.5959 54.1186 28.9241L54.3094 27.4306H50.4565C50.4386 22.8964 47.478 19.0416 43.3599 17.5862L55.4263 6.18186C55.9629 5.67478 55.9802 4.83467 55.462 4.30763C55.3392 4.18216 55.1925 4.08167 55.0302 4.0119C54.8678 3.94214 54.6931 3.90447 54.5159 3.90104C54.3388 3.89762 54.1627 3.92851 53.9977 3.99195C53.8327 4.05539 53.682 4.15013 53.5543 4.27077L40.1131 16.9764C39.9925 16.9715 39.8725 16.9582 39.75 16.9582C39.6725 16.9582 39.598 16.9691 39.5217 16.9703L48.1457 2.62016C48.2359 2.47019 48.2951 2.30425 48.3199 2.13181C48.3448 1.95937 48.3348 1.78381 48.2906 1.61516C48.2464 1.4465 48.1687 1.28806 48.0621 1.14887C47.9556 1.00968 47.8221 0.892478 47.6694 0.803952ZM18.8725 13.9804C24.0399 13.9804 28.75 16.8374 31.0928 21.3135C30.2387 22.4673 29.6331 23.78 29.3131 25.1714C28.2392 20.4764 23.9697 16.957 18.8725 16.957C12.9851 16.957 8.19555 21.652 8.17032 27.4312H5.13524C5.15986 20.011 11.3112 13.9804 18.8725 13.9804ZM18.8725 22.5936C16.1463 22.5936 13.9279 24.7604 13.9026 27.4312H10.8719C10.8971 23.1146 14.4743 19.6103 18.8725 19.6103C23.2719 19.6103 26.8528 23.1146 26.8755 27.4312H23.8411C23.8171 24.7604 21.5986 22.5936 18.8725 22.5936ZM21.1383 27.4318H16.6066C16.6187 26.8488 16.8627 26.2936 17.2865 25.8851C17.7102 25.4766 18.28 25.2473 18.8737 25.2463C19.4672 25.2475 20.0366 25.4769 20.4599 25.8854C20.8832 26.2939 21.1267 26.8491 21.1383 27.4318ZM51.1974 30.0845C49.6965 37.793 44.374 44.3646 36.9974 47.5123H32.6743V50.1656H36.9685C36.8674 50.5819 36.6266 50.9526 36.2849 51.2183C35.9433 51.4839 35.5205 51.6289 35.0848 51.63H17.5802V50.1656H22.6442V47.5123H17.6128C10.2362 44.3664 4.91309 37.793 3.41094 30.0845H51.1974ZM37.4848 27.4318C37.4967 26.849 37.7404 26.294 38.1638 25.8855C38.5872 25.4771 39.1565 25.2476 39.75 25.2463C40.344 25.2468 40.9142 25.4759 41.3382 25.8845C41.7623 26.293 42.0064 26.8485 42.0183 27.4318H37.4848ZM39.75 19.6109C44.1512 19.6109 47.7334 23.1152 47.7568 27.4318H44.7205C44.6959 24.761 42.4768 22.5942 39.75 22.5942C37.0239 22.5942 34.8072 24.761 34.7826 27.4318H31.7494C31.774 23.1152 35.3512 19.6109 39.75 19.6109Z" fill="white"/>
    <path d="M39.1741 42.9139C39.3901 42.9139 39.6086 42.8637 39.8098 42.7568C41.4591 41.8897 42.9065 40.6947 44.0598 39.248C45.2131 37.8012 46.0469 36.1345 46.5082 34.3539C46.5524 34.1848 46.5622 34.0088 46.537 33.8361C46.5118 33.6633 46.4522 33.4971 46.3614 33.347C46.2707 33.1969 46.1507 33.0659 46.0083 32.9615C45.8659 32.8571 45.7039 32.7813 45.5316 32.7385C45.3593 32.6957 45.1801 32.6867 45.0043 32.7121C44.8285 32.7374 44.6595 32.7967 44.507 32.8863C44.3545 32.976 44.2215 33.0943 44.1157 33.2346C44.0099 33.3748 43.9334 33.5342 43.8904 33.7035C43.5221 35.1266 42.856 36.4588 41.9345 37.6151C41.0131 38.7714 39.8565 39.7265 38.5384 40.4196C38.2726 40.5585 38.0618 40.7808 37.9395 41.051C37.8172 41.3213 37.7905 41.6239 37.8636 41.9108C37.9367 42.1976 38.1054 42.4522 38.3429 42.634C38.5804 42.8158 38.873 42.9143 39.1741 42.9139Z" fill="white"/>
    <path d="M35.9059 45.0064C36.7903 45.0064 37.5072 44.3023 37.5072 43.4337C37.5072 42.5652 36.7903 41.8611 35.9059 41.8611C35.0216 41.8611 34.3047 42.5652 34.3047 43.4337C34.3047 44.3023 35.0216 45.0064 35.9059 45.0064Z" fill="white"/>
  </g>
  <defs>
    <clipPath id="clip0_10_1347">
      <rect width="56" height="55" fill="white"/>
    </clipPath>
  </defs>
</svg>