<svg xmlns="http://www.w3.org/2000/svg" width="100" height="100" viewBox="0 0 100 100" fill="none">
  <circle opacity="0.07" cx="50" cy="50" r="50" fill="#4D592B"/>
  <path d="M52.9715 32.3771L52.9296 32.2479L53.1426 32.523C53.3254 32.7276 53.4763 32.6823 53.6054 32.523C53.6054 32.523 54.7341 31.2266 53.8503 29.7173C53.3639 28.7178 51.4454 26.3398 50.4358 25.5952C48.6112 24.4363 47.434 25.3268 47.434 25.3268C47.2881 25.4358 47.1807 25.5952 47.2881 25.7427L47.5732 26.0362C44.1302 26.7255 43.6237 29.407 43.399 30.5944L43.3621 30.7906L42.8993 34.0105C42.7517 35.1341 43.3621 35.7429 44.4354 35.7429H47.9371C49.1579 35.7596 51.7003 35.7915 52.9715 32.3771Z" fill="#474747"/>
  <path d="M41.7049 30.5525L41.3309 33.1552L29.4777 44.1197C29.0278 44.4953 28.6916 44.989 28.5067 45.5451C28.4353 45.7527 28.3842 45.9667 28.3541 46.1841V47.0394C28.8085 47.0763 29.3334 47.0394 29.9053 46.9119L67.4104 36.1521C67.5352 36.1163 67.6666 36.1099 67.7942 36.1335C67.9218 36.157 68.0423 36.2099 68.146 36.288C68.2497 36.366 68.3339 36.4671 68.3919 36.5832C68.4499 36.6993 68.4802 36.8273 68.4804 36.9571V45.0839C68.4812 45.2639 68.4239 45.4394 68.3169 45.5841C68.2099 45.7289 68.059 45.8352 67.8867 45.8872C60.709 48.0506 32.1743 56.6488 31.4733 56.8383C30.6801 57.0563 28.9243 57.385 28.3541 57.3112V62.5687C28.8656 62.6391 29.3972 62.619 29.9053 62.4831L67.4088 51.6244C67.5336 51.5882 67.6652 51.5816 67.793 51.6051C67.9209 51.6285 68.0415 51.6813 68.1455 51.7594C68.2494 51.8375 68.3338 51.9386 68.3919 52.0549C68.45 52.1712 68.4803 52.2994 68.4804 52.4293V60.2309L69.7449 59.8687L69.7566 59.8653L69.827 59.8418C70.2376 59.7066 70.6328 59.5284 71.006 59.3102C71.7657 58.8574 71.8344 58.5505 71.8344 58.5119V36.6703C71.8344 36.3047 71.6835 35.6574 71.2861 35.0318C70.9138 34.4449 70.3855 33.9703 69.6929 33.7405L55.8456 30.4938C55.7844 29.9413 55.6097 29.4075 55.3325 28.9258C54.992 28.2533 54.3212 27.3326 53.6739 26.541L70.523 30.4904C70.5625 30.5002 70.6017 30.5113 70.6404 30.524C72.2587 31.0271 73.3974 32.1004 74.1169 33.234C74.8212 34.3409 75.1885 35.6037 75.1885 36.6703V58.5119C75.1885 60.4908 73.6071 61.6648 72.7182 62.193C72.0958 62.5596 71.4336 62.8539 70.7444 63.0701L70.7008 63.0835L70.6857 63.0869L70.6806 63.0886C70.6806 63.0886 70.4358 63.159 70.6773 63.0886L29.7443 74.8378C29.7204 74.8445 29.6964 74.8507 29.6722 74.8563C28.4765 75.1414 27.1181 75.0659 26.1169 74.0429C25.2197 73.1273 25 71.8209 25 70.6553V46.112L25.0017 46.0214V45.9963L25.0067 45.9594C25.0167 45.8097 25.0352 45.6608 25.0621 45.5133C25.109 45.2416 25.1912 44.8743 25.3354 44.4534C25.7042 43.364 26.3552 42.3919 27.2221 41.636L42.9794 27.0626C42.9435 27.114 42.9082 27.166 42.8738 27.2185C42.1091 28.4025 41.876 29.6385 41.7619 30.2439L41.7552 30.2841C41.7394 30.3738 41.7226 30.4632 41.7049 30.5525Z" fill="#474747"/>
</svg>